<svg id="visual" viewBox="0 0 900 600" width="900" height="600" xmlns="http://www.w3.org/2000/svg" xmlns:xlink="http://www.w3.org/1999/xlink" version="1.1"><g transform="translate(964.3231590038787 -7.631730221192299)"><path d="M125.6 -187C166.8 -115.1 207 -79.3 237.6 -24.4C268.1 30.6 289.1 104.8 277.8 194.3C266.5 283.8 223.1 388.6 149.5 418.7C76 448.9 -27.5 404.4 -112.8 354.2C-198.2 303.9 -265.4 248 -319.5 174.6C-373.7 101.2 -414.8 10.4 -409 -80.7C-403.2 -171.8 -350.4 -263.3 -274.4 -329C-198.4 -394.8 -99.2 -434.9 -28.5 -400.9C42.2 -366.9 84.4 -258.9 125.6 -187" fill="#009688"></path></g></svg>